<svg width="20" height="20" viewBox="0 0 20 20" fill="none" xmlns="http://www.w3.org/2000/svg">
<path d="M10.7208 2.49686C10.3996 1.9434 9.60036 1.9434 9.27921 2.49686L7.0175 6.39462C6.85886 6.66802 6.58465 6.8546 6.27209 6.90181L2.0335 7.54199C1.3216 7.64952 1.07188 8.54836 1.6263 9.00769L4.78388 11.6237C5.07616 11.8659 5.2136 12.2478 5.1426 12.6207L4.31662 16.9583C4.18605 17.644 4.90588 18.1768 5.5235 17.8516L9.51467 15.75C9.81845 15.5901 10.1815 15.5901 10.4853 15.75L14.4765 17.8516C15.0941 18.1768 15.8139 17.644 15.6834 16.9583L14.8574 12.6207C14.7864 12.2478 14.9238 11.8659 15.2161 11.6237L18.3737 9.00769C18.9281 8.54836 18.6784 7.64952 17.9665 7.54199L13.7279 6.90181C13.4153 6.8546 13.1411 6.66802 12.9825 6.39462L10.7208 2.49686Z" fill="#299764"/>
</svg>
